<svg width="317" height="370" viewBox="0 0 317 370" fill="none" xmlns="http://www.w3.org/2000/svg">
    <rect y="211.392" width="64" height="64" transform="rotate(-45 0 211.392)" fill="#EEEEEE" fill-opacity="0.8"/>
    <rect x="56.5686" y="154.823" width="64" height="64" transform="rotate(-45 56.5686 154.823)" fill="#EEEEEE"
          fill-opacity="0.8"/>
    <rect x="113.137" y="98.2548" width="64" height="64" transform="rotate(-45 113.137 98.2548)" fill="#EEEEEE"
          fill-opacity="0.8"/>
    <rect x="56.5686" y="267.96" width="64" height="64" transform="rotate(-45 56.5686 267.96)" fill="#EEEEEE"
          fill-opacity="0.8"/>
    <rect x="113.137" y="211.392" width="64" height="64" transform="rotate(-45 113.137 211.392)" fill="#EEEEEE"
          fill-opacity="0.8"/>
    <rect x="169.706" y="154.823" width="64" height="64" transform="rotate(-45 169.706 154.823)" fill="#EEEEEE"
          fill-opacity="0.8"/>
    <rect x="113.137" y="324.529" width="64" height="64" transform="rotate(-45 113.137 324.529)" fill="#EEEEEE"
          fill-opacity="0.8"/>
    <rect x="169.706" y="267.96" width="64" height="64" transform="rotate(-45 169.706 267.96)" fill="#EEEEEE"
          fill-opacity="0.8"/>
    <rect x="226.274" y="211.392" width="64" height="64" transform="rotate(-45 226.274 211.392)" fill="#EEEEEE"
          fill-opacity="0.8"/>
    <rect y="158.392" width="64" height="64" transform="rotate(-45 0 158.392)" fill="#0A99FF" fill-opacity="0.85"/>
    <rect opacity="0.9" x="56.5686" y="101.823" width="64" height="64" transform="rotate(-45 56.5686 101.823)"
          fill="#0A99FF" fill-opacity="0.95"/>
    <rect opacity="0.95" x="113.137" y="45.2548" width="64" height="64" transform="rotate(-45 113.137 45.2548)"
          fill="#0A99FF"/>
    <rect opacity="0.8" x="56.5686" y="214.96" width="64" height="64" transform="rotate(-45 56.5686 214.96)"
          fill="#0A99FF" fill-opacity="0.7"/>
    <rect opacity="0.85" x="113.137" y="158.392" width="64" height="64" transform="rotate(-45 113.137 158.392)"
          fill="#0A99FF" fill-opacity="0.8"/>
    <rect opacity="0.9" x="169.706" y="101.823" width="64" height="64" transform="rotate(-45 169.706 101.823)"
          fill="#0A99FF" fill-opacity="0.9"/>
    <path opacity="0.5" d="M113.137 271.529L158.392 226.274L203.647 271.529L158.392 316.784L113.137 271.529Z"
          fill="#0A99FF" fill-opacity="0.6"/>
    <rect opacity="0.8" x="169.706" y="214.96" width="64" height="64" transform="rotate(-45 169.706 214.96)"
          fill="#0A99FF" fill-opacity="0.65"/>
    <rect opacity="0.85" x="226.274" y="158.392" width="64" height="64" transform="rotate(-45 226.274 158.392)"
          fill="#0A99FF" fill-opacity="0.75"/>
</svg>
